<svg width="564" height="194" viewBox="0 0 564 194" fill="none" xmlns="http://www.w3.org/2000/svg">
<path d="M353.571 115.429H351V97.4286H353.571V94.8571H356.143V92.2857H374.143V94.8571H376.714V97.4286H379.286V110.286H376.714V112.857H369V110.286H366.429V112.857H361.286V110.286H358.714V102.571H361.286V100H371.571V110.286H374.143V100H371.571V97.4286H358.714V100H356.143V112.857H358.714V115.429H374.143V118H371.571V120.571H356.143V118H353.571V115.429ZM363.857 107.714H366.429V105.143H363.857V107.714ZM386.987 112.857H394.701V102.571H386.987V112.857ZM386.987 100H389.558V97.4286H397.272V100H399.844V115.429H397.272V118H381.844V92.2857H386.987V100ZM402.422 118H404.993V115.429H407.565V112.857H404.993V110.286H402.422V97.4286H407.565V107.714H410.136V110.286H412.708V97.4286H417.85V112.857H415.279V115.429H412.708V118H410.136V120.571H407.565V123.143H402.422V118ZM420.422 123.143V118H438.422V123.143H420.422ZM441 100H443.571V97.4286H456.429V100H459V110.286H446.143V112.857H459V115.429H456.429V118H443.571V115.429H441V100ZM446.143 105.143H453.857V102.571H446.143V105.143ZM464.15 115.429H461.578V112.857H471.864V110.286H464.15V107.714H461.578V100H464.15V97.4286H474.435V100H477.007V102.571H466.721V105.143H474.435V107.714H477.007V115.429H474.435V118H464.15V115.429ZM492.435 110.286H497.578V115.429H495.007V118H482.15V115.429H479.578V100H482.15V97.4286H495.007V100H497.578V105.143H492.435V102.571H484.721V112.857H492.435V110.286ZM502.728 115.429H500.156V107.714H502.728V105.143H513.013V102.571H500.156V100H502.728V97.4286H515.585V100H518.156V118H513.013V115.429H510.442V118H502.728V115.429ZM505.299 112.857H513.013V110.286H505.299V112.857ZM525.877 112.857H533.592V102.571H525.877V112.857ZM525.877 100H528.449V97.4286H536.163V100H538.734V115.429H536.163V118H525.877V123.143H520.734V97.4286H525.877V100ZM541.312 100H543.884V97.4286H556.741V100H559.312V110.286H546.455V112.857H559.312V115.429H556.741V118H543.884V115.429H541.312V100ZM546.455 105.143H554.17V102.571H546.455V105.143Z" fill="#00F0FF"/>
<path d="M155.143 52.7143H162V59.5714H158.571V63H141.429V59.5714H138V32.1429H141.429V28.7143H158.571V32.1429H162V39H155.143V35.5714H148.286V39H144.857V52.7143H148.286V56.1429H155.143V52.7143ZM165.438 28.7143H186.009V32.1429H189.438V45.8571H186.009V49.2857H189.438V63H182.58V52.7143H172.295V63H165.438V28.7143ZM182.58 45.8571V35.5714H172.295V45.8571H182.58ZM192.875 39H196.304V35.5714H199.732V32.1429H203.161V28.7143H206.589V32.1429H210.018V35.5714H213.446V39H216.875V63H210.018V56.1429H199.732V63H192.875V39ZM199.732 49.2857H210.018V42.4286H206.589V39H203.161V42.4286H199.732V49.2857ZM227.17 42.4286H237.455V49.2857H227.17V63H220.312V28.7143H240.884V35.5714H227.17V42.4286ZM251.17 35.5714H244.312V28.7143H264.884V35.5714H258.027V63H251.17V35.5714ZM275.17 56.1429H288.884V63H268.312V28.7143H288.884V35.5714H275.17V42.4286H285.455V49.2857H275.17V56.1429ZM292.312 28.7143H312.884V32.1429H316.312V59.5714H312.884V63H292.312V28.7143ZM306.027 52.7143H309.455V39H306.027V35.5714H299.17V56.1429H306.027V52.7143ZM350.58 35.5714H340.295V42.4286H350.58V35.5714ZM340.295 56.1429H350.58V49.2857H340.295V56.1429ZM354.009 45.8571H357.438V59.5714H354.009V63H333.438V28.7143H354.009V32.1429H357.438V42.4286H354.009V45.8571ZM371.161 52.7143H367.732V49.2857H364.304V45.8571H360.875V28.7143H367.732V42.4286H371.161V45.8571H378.018V42.4286H381.446V28.7143H388.304V45.8571H384.875V49.2857H381.446V52.7143H378.018V63H371.161V52.7143ZM412.295 56.1429H426.009V63H405.438V28.7143H426.009V35.5714H412.295V42.4286H422.58V49.2857H412.295V56.1429ZM429.438 52.7143H436.295V56.1429H446.58V49.2857H432.866V45.8571H429.438V32.1429H432.866V28.7143H450.009V32.1429H453.438V39H446.58V35.5714H436.295V42.4286H450.009V45.8571H453.438V59.5714H450.009V63H432.866V59.5714H429.438V52.7143ZM474.018 52.7143H480.875V59.5714H477.446V63H460.304V59.5714H456.875V32.1429H460.304V28.7143H477.446V32.1429H480.875V39H474.018V35.5714H467.161V39H463.732V52.7143H467.161V56.1429H474.018V52.7143ZM484.312 39H487.741V35.5714H491.17V32.1429H494.598V28.7143H498.027V32.1429H501.455V35.5714H504.884V39H508.312V63H501.455V56.1429H491.17V63H484.312V39ZM491.17 49.2857H501.455V42.4286H498.027V39H494.598V42.4286H491.17V49.2857ZM511.75 28.7143H532.321V32.1429H535.75V49.2857H532.321V52.7143H518.607V63H511.75V28.7143ZM528.893 35.5714H518.607V45.8571H528.893V35.5714ZM546.045 56.1429H559.759V63H539.188V28.7143H559.759V35.5714H546.045V42.4286H556.33V49.2857H546.045V56.1429Z" fill="#00F0FF"/>
<path d="M34.936 24L17.7651 37.6993L13 116.548H117.8L113.035 37.6993L95.8641 24C75.6459 26.7226 55.1541 26.7226 34.936 24Z" stroke="#00F0FF" stroke-width="3" stroke-linecap="round" stroke-linejoin="round"/>
<path d="M91.8178 24.5076C92.2693 24.4534 92.7271 24.4926 93.1628 24.6229C93.5985 24.7532 94.0027 24.9717 94.3503 25.2649C94.6979 25.5581 94.9814 25.9198 95.1832 26.3273C95.3851 26.7348 95.5009 27.1794 95.5235 27.6336L97.6981 75.4715C97.7358 76.2107 97.5175 76.9403 97.0799 77.5372C96.6423 78.1341 96.0121 78.5618 95.2958 78.7482C75.6796 83.7493 55.1221 83.7493 35.5058 78.7482C34.7895 78.5618 34.1594 78.1341 33.7218 77.5372C33.2841 76.9403 33.0658 76.2107 33.1036 75.4715L35.2782 27.6336C35.3008 27.1796 35.4166 26.7351 35.6183 26.3277C35.82 25.9203 36.1034 25.5588 36.4508 25.2656C36.7982 24.9724 37.2022 24.7538 37.6377 24.6234C38.0732 24.493 38.5308 24.4536 38.9822 24.5076M13 116.548L33.1576 76.233M117.8 116.548L97.6424 76.233" stroke="#00F0FF" stroke-width="4" stroke-linecap="round" stroke-linejoin="round"/>
<path d="M43.78 59.742V38.742H56.11V41.142H46.42V47.802H54.28V50.142H46.42V57.342H56.11V59.742H43.78ZM65.3636 60.102C64.2836 60.102 63.2636 59.892 62.3036 59.472C61.3436 59.032 60.5636 58.432 59.9636 57.672C59.3836 56.912 59.0936 56.042 59.0936 55.062H61.7936C61.7936 55.682 61.9736 56.202 62.3336 56.622C62.6936 57.022 63.1536 57.322 63.7136 57.522C64.2736 57.722 64.8436 57.822 65.4236 57.822C66.5436 57.822 67.4136 57.642 68.0336 57.282C68.6736 56.922 68.9936 56.372 68.9936 55.632C68.9936 55.032 68.7636 54.582 68.3036 54.282C67.8436 53.982 67.2436 53.762 66.5036 53.622C65.7836 53.462 65.0136 53.312 64.1936 53.172C63.3936 53.032 62.6236 52.822 61.8836 52.542C61.1636 52.262 60.5736 51.842 60.1136 51.282C59.6536 50.722 59.4236 49.942 59.4236 48.942C59.4236 48.202 59.6236 47.492 60.0236 46.812C60.4436 46.112 61.0736 45.532 61.9136 45.072C62.7536 44.612 63.8236 44.382 65.1236 44.382C66.2636 44.382 67.2236 44.522 68.0036 44.802C68.7836 45.062 69.4036 45.412 69.8636 45.852C70.3436 46.292 70.6836 46.772 70.8836 47.292C71.1036 47.792 71.2136 48.272 71.2136 48.732H68.6336C68.6336 48.232 68.3436 47.762 67.7636 47.322C67.1836 46.882 66.2936 46.662 65.0936 46.662C63.9936 46.662 63.1936 46.862 62.6936 47.262C62.1936 47.642 61.9436 48.152 61.9436 48.792C61.9436 49.272 62.1136 49.652 62.4536 49.932C62.8136 50.192 63.2736 50.402 63.8336 50.562C64.3936 50.722 65.0136 50.862 65.6936 50.982C66.3936 51.102 67.0836 51.252 67.7636 51.432C68.4436 51.612 69.0636 51.862 69.6236 52.182C70.1836 52.502 70.6336 52.932 70.9736 53.472C71.3336 53.992 71.5136 54.672 71.5136 55.512C71.5136 56.312 71.3036 57.062 70.8836 57.762C70.4836 58.462 69.8336 59.032 68.9336 59.472C68.0336 59.892 66.8436 60.102 65.3636 60.102ZM87.3285 48.312L85.0485 49.212C84.7285 48.452 84.2485 47.842 83.6085 47.382C82.9885 46.902 82.2285 46.662 81.3285 46.662C79.7485 46.662 78.5885 47.182 77.8485 48.222C77.1285 49.262 76.7685 50.592 76.7685 52.212C76.7685 53.872 77.1385 55.232 77.8785 56.292C78.6185 57.332 79.7685 57.852 81.3285 57.852C82.2285 57.852 82.9885 57.612 83.6085 57.132C84.2485 56.632 84.7285 56.002 85.0485 55.242L87.3285 56.142C86.8085 57.382 86.0685 58.362 85.1085 59.082C84.1485 59.782 82.9085 60.132 81.3885 60.132C80.1285 60.132 78.9485 59.842 77.8485 59.262C76.7685 58.682 75.8985 57.812 75.2385 56.652C74.5785 55.492 74.2485 54.042 74.2485 52.302C74.2485 50.542 74.5785 49.082 75.2385 47.922C75.8985 46.742 76.7685 45.862 77.8485 45.282C78.9485 44.682 80.1285 44.382 81.3885 44.382C82.7085 44.382 83.8985 44.732 84.9585 45.432C86.0185 46.112 86.8085 47.072 87.3285 48.312Z" fill="#00F0FF"/>
<path d="M306.238 119.778L297.571 128.333L292.619 112.444L279 107.556L331 88L321.095 132L302.524 114.889L312.429 107.556" stroke="#00F0FF" stroke-width="4" stroke-linecap="round" stroke-linejoin="round"/>
</svg>
